<svg xmlns="http://www.w3.org/2000/svg" xmlns:xlink="http://www.w3.org/1999/xlink" width="500" zoomAndPan="magnify" viewBox="0 0 375 374.999991" height="500" preserveAspectRatio="xMidYMid meet" version="1.0"><defs><clipPath id="d23fa38421"><path d="M 114 206 L 261 206 L 261 240 L 114 240 Z M 114 206 " clip-rule="nonzero"/></clipPath><clipPath id="abf349172b"><path d="M 128.304688 206.4375 C 128.304688 206.4375 124.695312 204.777344 116.3125 209.636719 C 116.3125 209.636719 112.5 212.082031 116.429688 213.363281 C 116.429688 213.363281 122.777344 216.070312 120.621094 219.128906 C 120.621094 219.128906 117.070312 223.113281 121 224.773438 C 121 224.773438 137.476562 227.21875 141.289062 231.703125 C 141.289062 231.703125 147.488281 240.40625 162.597656 235.660156 C 162.597656 235.660156 169.4375 232.460938 171.738281 232.722656 C 171.738281 232.722656 174.910156 232.34375 174.648438 234.640625 C 174.648438 234.640625 172.378906 237.464844 174.269531 238.367188 C 174.269531 238.367188 177.179688 241.308594 184.167969 237.988281 C 184.167969 237.988281 210.277344 227.742188 216.507812 232.984375 C 216.507812 232.984375 231.207031 242.210938 239.707031 232.082031 C 239.707031 232.082031 240.203125 229.140625 237.175781 227.21875 C 237.175781 227.21875 235.136719 225.675781 237.933594 224.394531 C 237.933594 224.394531 240.84375 222.589844 250.097656 223 C 250.097656 223 259.734375 223.261719 260.113281 219.15625 C 260.113281 219.15625 262.5 210.335938 247.363281 210.191406 C 232.023438 210.046875 234.585938 212.402344 234.585938 212.402344 C 234.585938 212.402344 236.214844 213.21875 235.691406 213.828125 C 235.136719 214.441406 235.691406 213.828125 235.691406 213.828125 C 235.691406 213.828125 235.542969 216.855469 231.207031 216.625 C 226.898438 216.363281 231.207031 216.625 231.207031 216.625 C 231.207031 216.625 227.917969 215.867188 227.394531 217.644531 C 226.898438 219.449219 227.394531 217.644531 227.394531 217.644531 C 227.394531 217.644531 217.378906 217.265625 211.792969 219.183594 C 211.792969 219.183594 211.414062 220.351562 204.574219 219.824219 C 197.730469 219.300781 204.574219 219.824219 204.574219 219.824219 C 204.574219 219.824219 194.675781 218.808594 189.726562 220.988281 C 189.726562 220.988281 183.527344 220.875 177.179688 218.28125 C 177.179688 218.28125 172.117188 216.363281 161.460938 219.824219 C 161.460938 219.824219 157.445312 221.367188 147.402344 217.003906 C 147.402344 217.003906 143.472656 214.703125 138.667969 216.101562 C 133.867188 217.496094 138.667969 216.101562 138.667969 216.101562 C 138.667969 216.101562 134.246094 217.378906 130.808594 213.160156 C 127.375 208.9375 130.808594 213.160156 130.808594 213.160156 C 130.808594 213.160156 123.472656 210.976562 128.421875 206.726562 C 128.945312 206.261719 128.421875 206.726562 128.421875 206.726562 Z M 128.304688 206.4375 " clip-rule="nonzero"/></clipPath><linearGradient x1="-260.169698" gradientTransform="matrix(0.245056, 12.987024, 12.987024, -0.245056, 3043.804131, 3529.497895)" y1="-215.047" x2="-257.070408" gradientUnits="userSpaceOnUse" y2="-215.047" id="a8c1b3aab3"><stop stop-opacity="1" stop-color="rgb(17.298889%, 72.898865%, 86.299133%)" offset="0"/><stop stop-opacity="1" stop-color="rgb(17.298889%, 72.898865%, 86.299133%)" offset="0.25"/><stop stop-opacity="1" stop-color="rgb(17.443848%, 72.953796%, 86.36322%)" offset="0.265625"/><stop stop-opacity="1" stop-color="rgb(17.694092%, 73.046875%, 86.473083%)" offset="0.273438"/><stop stop-opacity="1" stop-color="rgb(17.904663%, 73.126221%, 86.566162%)" offset="0.28125"/><stop stop-opacity="1" stop-color="rgb(18.115234%, 73.204041%, 86.657715%)" offset="0.289063"/><stop stop-opacity="1" stop-color="rgb(18.32428%, 73.283386%, 86.750793%)" offset="0.296875"/><stop stop-opacity="1" stop-color="rgb(18.534851%, 73.362732%, 86.842346%)" offset="0.304688"/><stop stop-opacity="1" stop-color="rgb(18.743896%, 73.440552%, 86.935425%)" offset="0.3125"/><stop stop-opacity="1" stop-color="rgb(18.954468%, 73.519897%, 87.028503%)" offset="0.320313"/><stop stop-opacity="1" stop-color="rgb(19.163513%, 73.597717%, 87.120056%)" offset="0.328125"/><stop stop-opacity="1" stop-color="rgb(19.374084%, 73.677063%, 87.213135%)" offset="0.335938"/><stop stop-opacity="1" stop-color="rgb(19.58313%, 73.756409%, 87.304688%)" offset="0.34375"/><stop stop-opacity="1" stop-color="rgb(19.793701%, 73.834229%, 87.397766%)" offset="0.351562"/><stop stop-opacity="1" stop-color="rgb(20.004272%, 73.913574%, 87.490845%)" offset="0.359375"/><stop stop-opacity="1" stop-color="rgb(20.213318%, 73.991394%, 87.582397%)" offset="0.367188"/><stop stop-opacity="1" stop-color="rgb(20.423889%, 74.07074%, 87.675476%)" offset="0.375"/><stop stop-opacity="1" stop-color="rgb(20.632935%, 74.14856%, 87.767029%)" offset="0.382812"/><stop stop-opacity="1" stop-color="rgb(20.843506%, 74.227905%, 87.860107%)" offset="0.390625"/><stop stop-opacity="1" stop-color="rgb(21.052551%, 74.307251%, 87.95166%)" offset="0.398438"/><stop stop-opacity="1" stop-color="rgb(21.263123%, 74.385071%, 88.044739%)" offset="0.40625"/><stop stop-opacity="1" stop-color="rgb(21.472168%, 74.464417%, 88.137817%)" offset="0.414063"/><stop stop-opacity="1" stop-color="rgb(21.682739%, 74.542236%, 88.22937%)" offset="0.421875"/><stop stop-opacity="1" stop-color="rgb(21.893311%, 74.621582%, 88.322449%)" offset="0.429688"/><stop stop-opacity="1" stop-color="rgb(22.102356%, 74.700928%, 88.414001%)" offset="0.4375"/><stop stop-opacity="1" stop-color="rgb(22.312927%, 74.778748%, 88.50708%)" offset="0.445312"/><stop stop-opacity="1" stop-color="rgb(22.521973%, 74.858093%, 88.600159%)" offset="0.453125"/><stop stop-opacity="1" stop-color="rgb(22.732544%, 74.935913%, 88.691711%)" offset="0.460938"/><stop stop-opacity="1" stop-color="rgb(22.941589%, 75.015259%, 88.78479%)" offset="0.46875"/><stop stop-opacity="1" stop-color="rgb(23.152161%, 75.093079%, 88.876343%)" offset="0.476563"/><stop stop-opacity="1" stop-color="rgb(23.361206%, 75.172424%, 88.969421%)" offset="0.484375"/><stop stop-opacity="1" stop-color="rgb(23.571777%, 75.25177%, 89.0625%)" offset="0.492188"/><stop stop-opacity="1" stop-color="rgb(23.782349%, 75.32959%, 89.154053%)" offset="0.5"/><stop stop-opacity="1" stop-color="rgb(23.991394%, 75.408936%, 89.247131%)" offset="0.507812"/><stop stop-opacity="1" stop-color="rgb(24.201965%, 75.486755%, 89.338684%)" offset="0.515625"/><stop stop-opacity="1" stop-color="rgb(24.411011%, 75.566101%, 89.431763%)" offset="0.523438"/><stop stop-opacity="1" stop-color="rgb(24.621582%, 75.645447%, 89.524841%)" offset="0.53125"/><stop stop-opacity="1" stop-color="rgb(24.830627%, 75.723267%, 89.616394%)" offset="0.539062"/><stop stop-opacity="1" stop-color="rgb(25.041199%, 75.802612%, 89.709473%)" offset="0.546875"/><stop stop-opacity="1" stop-color="rgb(25.250244%, 75.880432%, 89.801025%)" offset="0.554688"/><stop stop-opacity="1" stop-color="rgb(25.460815%, 75.959778%, 89.894104%)" offset="0.5625"/><stop stop-opacity="1" stop-color="rgb(25.671387%, 76.039124%, 89.985657%)" offset="0.570312"/><stop stop-opacity="1" stop-color="rgb(25.880432%, 76.116943%, 90.078735%)" offset="0.578125"/><stop stop-opacity="1" stop-color="rgb(26.091003%, 76.196289%, 90.171814%)" offset="0.585937"/><stop stop-opacity="1" stop-color="rgb(26.300049%, 76.274109%, 90.263367%)" offset="0.59375"/><stop stop-opacity="1" stop-color="rgb(26.51062%, 76.353455%, 90.356445%)" offset="0.601562"/><stop stop-opacity="1" stop-color="rgb(26.719666%, 76.431274%, 90.447998%)" offset="0.609375"/><stop stop-opacity="1" stop-color="rgb(26.930237%, 76.51062%, 90.541077%)" offset="0.617188"/><stop stop-opacity="1" stop-color="rgb(27.139282%, 76.589966%, 90.634155%)" offset="0.625"/><stop stop-opacity="1" stop-color="rgb(27.349854%, 76.667786%, 90.725708%)" offset="0.632812"/><stop stop-opacity="1" stop-color="rgb(27.560425%, 76.747131%, 90.818787%)" offset="0.640625"/><stop stop-opacity="1" stop-color="rgb(27.76947%, 76.824951%, 90.910339%)" offset="0.648437"/><stop stop-opacity="1" stop-color="rgb(27.980042%, 76.904297%, 91.003418%)" offset="0.65625"/><stop stop-opacity="1" stop-color="rgb(28.189087%, 76.983643%, 91.096497%)" offset="0.664062"/><stop stop-opacity="1" stop-color="rgb(28.399658%, 77.061462%, 91.188049%)" offset="0.671875"/><stop stop-opacity="1" stop-color="rgb(28.608704%, 77.140808%, 91.281128%)" offset="0.679688"/><stop stop-opacity="1" stop-color="rgb(28.819275%, 77.218628%, 91.372681%)" offset="0.6875"/><stop stop-opacity="1" stop-color="rgb(29.029846%, 77.297974%, 91.465759%)" offset="0.695312"/><stop stop-opacity="1" stop-color="rgb(29.238892%, 77.375793%, 91.558838%)" offset="0.703125"/><stop stop-opacity="1" stop-color="rgb(29.449463%, 77.455139%, 91.650391%)" offset="0.710938"/><stop stop-opacity="1" stop-color="rgb(29.658508%, 77.534485%, 91.743469%)" offset="0.71875"/><stop stop-opacity="1" stop-color="rgb(29.86908%, 77.612305%, 91.835022%)" offset="0.726562"/><stop stop-opacity="1" stop-color="rgb(30.078125%, 77.69165%, 91.928101%)" offset="0.734375"/><stop stop-opacity="1" stop-color="rgb(30.288696%, 77.76947%, 92.019653%)" offset="0.742188"/><stop stop-opacity="1" stop-color="rgb(30.497742%, 77.848816%, 92.112732%)" offset="0.75"/><stop stop-opacity="1" stop-color="rgb(30.708313%, 77.928162%, 92.205811%)" offset="0.757812"/><stop stop-opacity="1" stop-color="rgb(30.918884%, 78.005981%, 92.297363%)" offset="0.765625"/><stop stop-opacity="1" stop-color="rgb(31.12793%, 78.085327%, 92.390442%)" offset="0.773438"/><stop stop-opacity="1" stop-color="rgb(31.338501%, 78.163147%, 92.481995%)" offset="0.78125"/><stop stop-opacity="1" stop-color="rgb(31.547546%, 78.242493%, 92.575073%)" offset="0.789062"/><stop stop-opacity="1" stop-color="rgb(31.758118%, 78.320312%, 92.668152%)" offset="0.796875"/><stop stop-opacity="1" stop-color="rgb(31.967163%, 78.399658%, 92.759705%)" offset="0.804688"/><stop stop-opacity="1" stop-color="rgb(32.177734%, 78.479004%, 92.852783%)" offset="0.8125"/><stop stop-opacity="1" stop-color="rgb(32.38678%, 78.556824%, 92.944336%)" offset="0.820312"/><stop stop-opacity="1" stop-color="rgb(32.597351%, 78.636169%, 93.037415%)" offset="0.828125"/><stop stop-opacity="1" stop-color="rgb(32.807922%, 78.713989%, 93.130493%)" offset="0.835938"/><stop stop-opacity="1" stop-color="rgb(33.016968%, 78.793335%, 93.222046%)" offset="0.84375"/><stop stop-opacity="1" stop-color="rgb(33.227539%, 78.872681%, 93.315125%)" offset="0.851563"/><stop stop-opacity="1" stop-color="rgb(33.436584%, 78.9505%, 93.406677%)" offset="0.859375"/><stop stop-opacity="1" stop-color="rgb(33.647156%, 79.029846%, 93.499756%)" offset="0.867188"/><stop stop-opacity="1" stop-color="rgb(33.856201%, 79.107666%, 93.592834%)" offset="0.875"/><stop stop-opacity="1" stop-color="rgb(34.030151%, 79.173279%, 93.669128%)" offset="1"/></linearGradient><clipPath id="265ed55446"><path d="M 356.25 0 L 375 0 L 375 15.839844 L 356.25 15.839844 Z M 356.25 0 " clip-rule="nonzero"/></clipPath></defs><rect x="-37.5" width="450" fill="#ffffff" y="-37.499999" height="449.999989" fill-opacity="1"/><rect x="-37.5" width="450" fill="#ffffff" y="-37.499999" height="449.999989" fill-opacity="1"/><path fill="#bd6a28" d="M 194.210938 155.816406 L 187.953125 162.65625 C 187.953125 162.65625 189.144531 163.09375 191.210938 161.984375 C 191.210938 161.984375 188.738281 166.644531 186.378906 168.15625 L 189.378906 167.632812 C 189.378906 167.632812 184.980469 172.230469 183.496094 174.9375 C 183.496094 174.9375 186.261719 173.863281 187.078125 173.660156 C 187.078125 173.660156 181.578125 179.742188 180.675781 181.664062 L 183.003906 180.5 C 183.003906 180.5 179.683594 185.855469 178.519531 187.980469 L 181.140625 186.554688 C 181.140625 186.554688 177.964844 191.792969 178.8125 196.246094 L 174.53125 197.703125 C 174.53125 197.703125 172.609375 191.007812 173.921875 186.058594 L 174.910156 188.328125 C 174.910156 188.328125 174.910156 183.4375 176.015625 180.003906 C 176.015625 180.003906 176.859375 182.828125 177.617188 183.410156 C 177.617188 183.410156 177.792969 175.753906 179.1875 172.203125 L 180.617188 174.589844 C 180.617188 174.589844 180.992188 169.148438 182.363281 166.382812 L 183.175781 168.507812 C 183.175781 168.507812 183.730469 163.617188 185.769531 160.035156 L 186.175781 161.984375 C 186.175781 161.984375 187.425781 157.503906 188.214844 156.398438 C 188.183594 156.398438 191.125 147.316406 194.210938 155.816406 Z M 194.210938 155.816406 " fill-opacity="1" fill-rule="nonzero"/><path fill="#e27e25" d="M 191.851562 152.902344 L 190.019531 152.789062 C 189.320312 152.992188 188.183594 156.398438 188.183594 156.398438 C 187.398438 157.472656 186.144531 161.984375 186.144531 161.984375 L 185.738281 160.035156 C 183.703125 163.617188 183.148438 168.507812 183.148438 168.507812 L 182.332031 166.382812 C 180.964844 169.148438 180.585938 174.589844 180.585938 174.589844 L 179.160156 172.203125 C 177.761719 175.753906 177.703125 183.089844 177.703125 183.089844 C 176.917969 182.507812 175.988281 180.003906 175.988281 180.003906 C 174.882812 183.4375 174.882812 188.328125 174.882812 188.328125 L 174.386719 187.164062 L 174.328125 189.785156 L 176.917969 189.785156 C 177.589844 181.691406 191.851562 152.902344 191.851562 152.902344 Z M 191.851562 152.902344 " fill-opacity="1" fill-rule="nonzero"/><path fill="#9ecc3c" d="M 194.734375 175.695312 L 197.789062 173.484375 C 198.140625 176.132812 196.132812 182.011719 196.132812 182.011719 C 217.992188 168.128906 199.101562 154.738281 199.101562 154.738281 C 212.054688 148.011719 215.691406 163.820312 215.691406 163.820312 C 219.242188 152.992188 214.410156 146.996094 214.410156 146.996094 C 205.648438 137.96875 197.585938 147.898438 197.585938 147.898438 C 198.808594 137.855469 192.929688 136.050781 192.929688 136.050781 C 183.0625 132.789062 179.015625 141.375 179.015625 141.375 C 189.757812 138.960938 192.40625 150.136719 192.40625 150.136719 C 188.242188 145.886719 180.90625 145.742188 180.90625 145.742188 C 165.652344 148.160156 167.660156 163.703125 167.660156 163.703125 C 168.535156 161.695312 174.621094 159.191406 174.621094 159.191406 L 173.980469 157.792969 C 180.789062 148.566406 192.199219 154.125 192.199219 154.125 C 192.199219 154.125 199.332031 160.558594 194.734375 175.695312 Z M 194.734375 175.695312 " fill-opacity="1" fill-rule="nonzero"/><path fill="#75ae42" d="M 189.347656 152.960938 C 189.347656 152.960938 181.285156 146.734375 173.339844 155.988281 L 174.300781 157.242188 C 174.300781 157.242188 179.625 150.894531 189.347656 152.960938 Z M 189.347656 152.960938 " fill-opacity="1" fill-rule="nonzero"/><path fill="#58a445" d="M 173.453125 158.433594 C 173.601562 158.230469 173.773438 158.027344 173.949219 157.824219 C 174.675781 156.863281 175.433594 156.046875 176.25 155.378906 C 174.96875 153.804688 173.132812 152.496094 170.425781 151.828125 C 169.148438 153.660156 168.449219 155.640625 168.039062 157.472656 C 169.671875 157.734375 171.300781 158.492188 172.8125 160.066406 C 173.28125 159.859375 173.660156 159.65625 173.980469 159.539062 Z M 173.453125 158.433594 " fill-opacity="1" fill-rule="nonzero"/><path fill="#75ae42" d="M 194.820312 153.105469 C 196.132812 152.613281 198.3125 154.066406 199.1875 154.707031 C 210.25 149.0625 214.46875 159.890625 215.429688 163.003906 C 213.128906 142.335938 194.820312 153.105469 194.820312 153.105469 Z M 194.820312 153.105469 " fill-opacity="1" fill-rule="nonzero"/><path fill="#75ae42" d="M 192.347656 150.167969 C 192.347656 150.167969 193.394531 145.042969 188.648438 140.066406 C 188.648438 140.066406 183.527344 136.921875 178.957031 141.40625 C 178.984375 141.375 187.835938 139.949219 192.347656 150.167969 Z M 192.347656 150.167969 " fill-opacity="1" fill-rule="nonzero"/><path fill="#75ae42" d="M 199.042969 171.242188 L 197.5 171.445312 C 200.175781 157.765625 192.171875 154.15625 192.171875 154.15625 C 192.171875 154.15625 199.363281 160.589844 194.734375 175.695312 L 197.789062 173.484375 C 198.140625 176.132812 196.132812 182.011719 196.132812 182.011719 C 199.855469 175.375 199.042969 171.242188 199.042969 171.242188 Z M 199.042969 171.242188 " fill-opacity="1" fill-rule="nonzero"/><path fill="#bd6a28" d="M 158.898438 161.257812 L 162.453125 164.722656 C 162.453125 164.722656 161.492188 165.070312 159.800781 164.199219 C 159.800781 164.199219 161.839844 167.925781 163.761719 169.117188 L 161.34375 168.710938 C 161.34375 168.710938 164.925781 172.378906 166.175781 174.53125 C 166.175781 174.53125 163.9375 173.6875 163.265625 173.542969 C 163.265625 173.542969 166.585938 177.734375 167.34375 179.277344 L 166.644531 179.015625 C 166.644531 179.015625 168.1875 182.449219 169.175781 184.167969 L 168.214844 183.90625 C 168.214844 183.90625 170.835938 188.097656 170.195312 191.707031 L 173.660156 192.839844 C 173.660156 192.839844 175.113281 187.425781 174.035156 183.4375 L 173.28125 185.300781 C 173.28125 185.300781 173.222656 181.371094 172.320312 178.605469 C 172.320312 178.605469 172.175781 180.148438 171.5625 180.644531 C 171.5625 180.644531 170.835938 175.203125 169.671875 172.347656 L 169.46875 174.589844 C 169.46875 174.589844 168.1875 169.933594 167.050781 167.71875 L 166.410156 169.4375 C 166.410156 169.4375 165.914062 165.507812 164.226562 162.65625 L 163.90625 164.226562 C 163.90625 164.226562 162.859375 160.617188 162.191406 159.746094 C 162.21875 159.714844 160.792969 157.09375 158.898438 161.257812 Z M 158.898438 161.257812 " fill-opacity="1" fill-rule="nonzero"/><path fill="#e27e25" d="M 174.066406 183.410156 L 173.308594 185.273438 C 173.308594 185.273438 173.25 181.34375 172.347656 178.578125 C 172.347656 178.578125 172.203125 180.121094 171.589844 180.617188 C 171.589844 180.617188 170.863281 175.171875 169.699219 172.320312 L 169.496094 174.5625 C 169.496094 174.5625 168.214844 169.902344 167.078125 167.691406 L 166.4375 169.410156 C 166.4375 169.410156 165.945312 165.480469 164.257812 162.625 L 163.9375 164.199219 C 163.9375 164.199219 162.886719 160.589844 162.21875 159.714844 C 162.21875 159.714844 161.492188 158.375 160.355469 159.164062 L 159.917969 159.628906 C 159.917969 159.628906 170.863281 178.695312 172.523438 189.171875 L 174.269531 189.699219 C 174.503906 187.804688 174.621094 185.417969 174.066406 183.410156 Z M 174.066406 183.410156 " fill-opacity="1" fill-rule="nonzero"/><path fill="#9ecc3c" d="M 154.824219 154.359375 C 154.824219 154.359375 148.21875 146.441406 141.261719 153.804688 C 141.261719 153.804688 137.417969 158.695312 140.386719 167.398438 C 140.386719 167.398438 143.152344 154.621094 153.660156 159.917969 C 153.660156 159.917969 138.554688 170.921875 156.339844 181.867188 C 156.339844 181.867188 154.648438 177.121094 154.914062 174.996094 L 156.046875 176.480469 C 156.046875 176.480469 152.640625 164.664062 159.832031 160.5 C 159.832031 160.5 158.375 159.859375 159.832031 160.5 C 159.832031 160.5 168.417969 154.738281 174.007812 162.074219 L 173.484375 163.207031 C 173.484375 163.207031 178.433594 165.160156 179.160156 166.757812 C 179.160156 166.757812 181.023438 153.484375 168.273438 152.410156 C 168.273438 152.410156 162.363281 152.613281 159.046875 156.078125 C 159.046875 156.078125 161.054688 147.023438 169.757812 148.859375 C 169.757812 148.859375 166.90625 142.714844 158.492188 144.695312 C 158.433594 144.753906 153.71875 146.265625 154.824219 154.359375 Z M 154.824219 154.359375 " fill-opacity="1" fill-rule="nonzero"/><path fill="#75ae42" d="M 169.730469 148.886719 C 169.730469 148.886719 169.671875 148.769531 169.554688 148.566406 C 167.226562 147.460938 161.519531 145.917969 157.765625 154.214844 C 157.765625 154.214844 157.355469 155.667969 157.5625 156.484375 L 159.015625 156.078125 C 159.015625 156.105469 161.023438 147.050781 169.730469 148.886719 Z M 169.730469 148.886719 " fill-opacity="1" fill-rule="nonzero"/><path fill="#75ae42" d="M 154.882812 174.96875 L 156.019531 176.453125 C 156.019531 176.453125 154.214844 170.222656 155.988281 165.21875 C 156.019531 165.128906 156.046875 165.070312 156.078125 164.984375 C 156.71875 163.265625 157.824219 161.695312 159.597656 160.617188 L 159.425781 160.441406 C 159.425781 160.441406 154.59375 161.171875 153.457031 166.875 C 153.457031 166.875 151.476562 175.347656 156.308594 181.839844 C 156.308594 181.839844 154.621094 177.09375 154.882812 174.96875 Z M 154.882812 174.96875 " fill-opacity="1" fill-rule="nonzero"/><path fill="#75ae42" d="M 153.660156 159.890625 L 155.40625 159.132812 C 155.40625 159.132812 150.777344 154.066406 144.433594 157.792969 C 144.433594 157.792969 140.125 160.9375 140.386719 167.398438 C 140.386719 167.371094 143.152344 154.59375 153.660156 159.890625 Z M 153.660156 159.890625 " fill-opacity="1" fill-rule="nonzero"/><path fill="#75ae42" d="M 173.949219 162.074219 C 173.949219 162.074219 168.738281 154.765625 159.773438 160.5 C 159.800781 160.5 167.167969 150.136719 173.949219 162.074219 Z M 173.949219 162.074219 " fill-opacity="1" fill-rule="nonzero"/><path fill="#ffd383" d="M 119.660156 221.835938 C 119.660156 221.835938 127.519531 188.125 178.695312 188.066406 C 178.695312 188.066406 217.4375 187.164062 242.96875 221.339844 C 242.96875 221.367188 170.71875 222.796875 119.660156 221.835938 Z M 119.660156 221.835938 " fill-opacity="1" fill-rule="nonzero"/><path fill="#fec75f" d="M 166.703125 202.796875 C 169.058594 202.796875 171.242188 203.464844 173.542969 203.496094 C 175.898438 203.554688 178.285156 203.496094 180.644531 203.496094 C 184.835938 203.496094 188.941406 202.824219 192.839844 201.574219 C 194.53125 201.050781 196.277344 200.410156 198.023438 199.914062 C 200.324219 199.246094 202.449219 199.1875 204.863281 199.1875 C 206.988281 199.1875 208.96875 199.363281 210.976562 199.914062 C 211.996094 200.175781 212.839844 200.351562 213.800781 200.789062 C 214.617188 201.136719 215.402344 201.71875 216.214844 201.980469 C 217.699219 202.476562 220.320312 202.535156 221.804688 201.429688 C 217.324219 198.519531 212.808594 196.246094 208.53125 194.472656 C 206.988281 194.851562 204.660156 194.910156 203 194.675781 C 201.167969 194.414062 199.449219 194.644531 197.585938 194.675781 C 192.578125 194.792969 187.632812 197.46875 183.003906 199.128906 C 180.847656 199.886719 178.898438 200.148438 176.65625 200.585938 C 174.851562 200.964844 172.929688 201.285156 171.007812 201.078125 C 169.117188 200.875 167.253906 200.175781 165.363281 200.117188 C 163.410156 200.0625 161.433594 200.117188 159.480469 200.117188 C 157.125 200.117188 154.796875 200.148438 152.640625 201.109375 C 150.984375 201.867188 149.527344 202.914062 147.984375 203.726562 C 144.460938 205.621094 140.414062 205.097656 136.398438 205.097656 C 135.261719 205.097656 134.273438 204.835938 133.167969 204.863281 C 132.179688 204.863281 131.507812 204.515625 130.578125 204.398438 C 129.207031 205.738281 127.984375 207.105469 126.910156 208.414062 C 128.683594 208.414062 130.429688 208.617188 132.148438 208.648438 C 134.070312 208.675781 136.050781 208.878906 138.027344 208.878906 C 140.300781 208.878906 142.425781 208.558594 144.636719 208.183594 C 146.644531 207.832031 148.566406 206.902344 150.691406 206.726562 C 152.757812 206.550781 155.203125 207.164062 157.09375 206.492188 C 158.753906 205.910156 160.09375 204.71875 161.636719 203.933594 C 163.410156 203.117188 164.578125 202.824219 166.703125 202.796875 Z M 166.703125 202.796875 " fill-opacity="1" fill-rule="nonzero"/><path fill="#e8b95e" d="M 178.695312 188.066406 C 166.554688 187.863281 156.191406 190.074219 147.371094 193.65625 C 147.925781 193.628906 148.480469 193.539062 148.769531 193.539062 C 149.875 193.539062 151.300781 193.65625 152.320312 194.007812 C 153.105469 194.269531 153.601562 194.558594 154.445312 194.703125 C 155.40625 194.910156 156.28125 194.996094 157.269531 194.734375 C 159.015625 194.296875 160.296875 192.8125 161.984375 192.40625 C 163.90625 191.910156 165.972656 192.171875 167.867188 191.707031 C 168.710938 191.472656 169.582031 191.414062 170.457031 191.242188 C 171.589844 191.007812 172.550781 190.6875 173.746094 190.714844 C 174.824219 190.714844 176.160156 190.511719 177.238281 190.773438 C 177.761719 190.890625 178.113281 191.269531 178.722656 191.210938 C 179.1875 191.183594 180.003906 190.832031 180.5 190.714844 C 182.449219 190.28125 184.574219 189.960938 186.464844 189 C 186.640625 188.910156 186.84375 188.796875 187.046875 188.679688 C 181.894531 188.007812 178.695312 188.066406 178.695312 188.066406 Z M 178.695312 188.066406 " fill-opacity="1" fill-rule="nonzero"/><g clip-path="url(#d23fa38421)"><g clip-path="url(#abf349172b)"><path fill="url(#a8c1b3aab3)" d="M 111.792969 204.789062 L 262.445312 201.945312 L 263.207031 242.199219 L 112.554688 245.039062 Z M 111.792969 204.789062 " fill-rule="nonzero"/></g></g><path fill="#5ccbef" d="M 127.316406 208.125 C 127.289062 208.152344 127.171875 208.210938 127.113281 208.242188 C 127.027344 208.269531 126.96875 208.296875 126.878906 208.328125 C 126.734375 208.386719 126.589844 208.386719 126.441406 208.414062 C 126.179688 208.445312 125.917969 208.445312 125.746094 208.472656 C 125.65625 208.472656 125.570312 208.503906 125.539062 208.53125 L 125.425781 208.589844 L 125.308594 208.648438 C 125.132812 208.765625 124.929688 208.878906 124.726562 209.027344 C 124.609375 209.085938 124.492188 209.171875 124.375 209.230469 C 124.316406 209.257812 124.261719 209.289062 124.171875 209.316406 L 124 209.40625 C 123.792969 209.492188 123.589844 209.578125 123.386719 209.695312 C 123.007812 209.898438 122.628906 210.132812 122.367188 210.394531 C 122.308594 210.453125 122.25 210.511719 122.195312 210.570312 L 122.136719 210.65625 L 122.105469 210.683594 L 122.078125 210.742188 C 122.019531 210.890625 121.960938 211.035156 121.960938 211.152344 C 121.960938 211.269531 121.960938 211.355469 122.019531 211.472656 C 122.078125 211.589844 122.164062 211.703125 122.28125 211.792969 C 122.511719 212.023438 122.863281 212.257812 123.242188 212.433594 C 123.621094 212.636719 124.027344 212.78125 124.464844 212.957031 C 124.902344 213.101562 125.335938 213.246094 125.804688 213.394531 L 126.472656 213.625 C 126.734375 213.710938 126.996094 213.800781 127.289062 213.976562 C 127.578125 214.148438 127.898438 214.410156 128.101562 214.730469 C 128.335938 215.050781 128.453125 215.402344 128.511719 215.722656 C 128.539062 215.808594 128.539062 215.867188 128.566406 215.953125 L 128.597656 216.070312 L 128.625 216.1875 L 128.625 216.421875 C 128.625 216.507812 128.625 216.59375 128.625 216.683594 C 128.625 217.003906 128.566406 217.351562 128.480469 217.644531 C 128.304688 218.253906 127.984375 218.777344 127.636719 219.214844 C 127.460938 219.449219 127.257812 219.652344 127.054688 219.855469 L 126.910156 219.972656 L 126.792969 220.085938 C 126.734375 220.175781 126.648438 220.234375 126.589844 220.320312 C 126.441406 220.464844 126.328125 220.640625 126.238281 220.785156 C 126.152344 220.933594 126.066406 221.078125 126.035156 221.195312 C 126.007812 221.308594 126.007812 221.339844 126.007812 221.308594 L 126.035156 221.339844 C 126.09375 221.367188 126.238281 221.425781 126.414062 221.457031 C 126.589844 221.484375 126.792969 221.515625 126.996094 221.515625 C 127.402344 221.515625 127.839844 221.484375 128.335938 221.457031 L 128.539062 221.425781 C 128.597656 221.425781 128.683594 221.425781 128.773438 221.425781 C 128.917969 221.425781 129.0625 221.425781 129.179688 221.425781 C 129.441406 221.457031 129.675781 221.484375 129.90625 221.484375 C 130.023438 221.484375 130.140625 221.515625 130.226562 221.515625 L 130.546875 221.515625 C 130.75 221.515625 130.984375 221.515625 131.21875 221.484375 C 131.449219 221.484375 131.710938 221.457031 131.972656 221.457031 C 132.089844 221.457031 132.234375 221.457031 132.351562 221.457031 L 132.703125 221.484375 C 133.167969 221.515625 133.632812 221.515625 134.097656 221.515625 C 134.566406 221.515625 135.03125 221.515625 135.527344 221.484375 L 136.253906 221.457031 C 136.515625 221.457031 136.746094 221.457031 137.011719 221.457031 C 138 221.484375 138.960938 221.6875 139.890625 221.890625 C 140.824219 222.097656 141.753906 222.359375 142.65625 222.679688 C 143.121094 222.824219 143.558594 223 144.023438 223.144531 C 144.460938 223.320312 144.925781 223.492188 145.363281 223.699219 C 146.238281 224.105469 147.050781 224.601562 147.898438 225.066406 C 148.742188 225.53125 149.585938 225.96875 150.457031 226.289062 C 150.894531 226.460938 151.359375 226.578125 151.796875 226.636719 C 152.261719 226.695312 152.730469 226.726562 153.195312 226.695312 C 154.125 226.667969 155.058594 226.460938 155.960938 226.230469 C 156.890625 225.996094 157.792969 225.734375 158.753906 225.53125 C 158.988281 225.472656 159.25 225.445312 159.480469 225.386719 L 160.179688 225.238281 L 161.578125 224.949219 L 162.976562 224.65625 C 163.207031 224.601562 163.441406 224.570312 163.703125 224.511719 C 163.9375 224.484375 164.199219 224.425781 164.429688 224.394531 L 165.855469 224.222656 C 166.324219 224.164062 166.757812 224.074219 167.285156 224.015625 C 168.273438 223.902344 169.292969 223.871094 170.3125 223.929688 C 171.300781 223.988281 172.320312 224.132812 173.308594 224.335938 C 173.804688 224.453125 174.300781 224.570312 174.792969 224.714844 L 175.464844 224.921875 L 176.132812 225.125 L 178.898438 225.910156 C 179.363281 226.054688 179.886719 226.199219 180.410156 226.433594 C 180.675781 226.550781 180.964844 226.695312 181.226562 226.898438 C 181.519531 227.101562 181.808594 227.363281 182.070312 227.742188 C 182.101562 227.773438 182.128906 227.832031 182.160156 227.890625 L 182.1875 227.976562 L 182.246094 228.0625 L 182.273438 228.09375 L 182.304688 228.179688 L 182.332031 228.296875 L 182.363281 228.382812 C 182.449219 228.617188 182.480469 228.820312 182.507812 229.054688 C 182.535156 229.488281 182.507812 229.898438 182.363281 230.304688 C 182.332031 230.390625 182.273438 230.507812 182.246094 230.597656 C 182.214844 230.65625 182.1875 230.683594 182.160156 230.742188 L 182.128906 230.828125 L 182.070312 230.917969 C 181.953125 231.089844 181.839844 231.238281 181.78125 231.351562 C 181.691406 231.441406 181.664062 231.527344 181.691406 231.46875 C 181.722656 231.441406 181.78125 231.324219 181.808594 231.121094 C 181.808594 231.03125 181.808594 230.886719 181.78125 230.769531 C 181.75 230.65625 181.722656 230.566406 181.664062 230.480469 C 181.578125 230.335938 181.519531 230.277344 181.488281 230.246094 L 181.460938 230.21875 L 181.488281 230.21875 L 181.460938 230.21875 C 181.460938 230.21875 181.546875 230.246094 181.664062 230.21875 C 181.925781 230.1875 182.304688 230.070312 182.683594 229.925781 C 182.886719 229.839844 183.089844 229.753906 183.292969 229.664062 L 183.644531 229.519531 C 183.757812 229.460938 183.90625 229.402344 183.992188 229.375 L 185.332031 228.851562 C 186.203125 228.5 187.105469 228.152344 188.039062 227.832031 C 188.96875 227.511719 189.902344 227.191406 190.832031 226.929688 C 191.296875 226.78125 191.792969 226.667969 192.289062 226.578125 L 193.6875 226.289062 C 195.578125 225.878906 197.46875 225.53125 199.363281 225.210938 C 201.253906 224.890625 203.203125 224.6875 205.125 224.601562 C 206.085938 224.542969 207.074219 224.570312 208.035156 224.601562 C 208.53125 224.628906 208.996094 224.65625 209.492188 224.6875 C 209.988281 224.714844 210.480469 224.804688 210.949219 224.890625 C 212.867188 225.238281 214.730469 225.851562 216.566406 226.375 C 217.46875 226.636719 218.398438 226.839844 219.300781 227.015625 L 220 227.132812 L 220.699219 227.21875 C 221.164062 227.277344 221.628906 227.335938 222.066406 227.363281 C 222.96875 227.421875 223.84375 227.453125 224.628906 227.335938 C 224.832031 227.308594 225.007812 227.277344 225.210938 227.21875 C 225.296875 227.191406 225.386719 227.160156 225.472656 227.160156 L 225.765625 227.074219 C 225.996094 227.015625 226.199219 226.929688 226.375 226.871094 C 226.550781 226.8125 226.695312 226.726562 226.8125 226.667969 C 226.929688 226.609375 226.988281 226.550781 226.929688 226.550781 C 226.898438 226.550781 226.871094 226.609375 226.839844 226.667969 L 226.8125 226.726562 L 226.78125 226.78125 L 226.78125 226.695312 L 226.78125 226.726562 C 226.78125 226.695312 226.78125 226.636719 226.78125 226.492188 C 226.78125 226.375 226.726562 226.171875 226.695312 225.9375 C 226.667969 225.707031 226.609375 225.414062 226.578125 225.035156 C 226.550781 224.6875 226.550781 224.222656 226.695312 223.753906 L 226.753906 223.582031 L 226.78125 223.492188 L 226.8125 223.433594 L 226.929688 223.144531 C 227.015625 222.96875 227.074219 222.824219 227.160156 222.679688 C 227.335938 222.386719 227.511719 222.125 227.714844 221.890625 C 228.09375 221.425781 228.5 221.019531 228.9375 220.671875 C 229.054688 220.582031 229.140625 220.496094 229.285156 220.40625 L 229.488281 220.261719 C 229.546875 220.203125 229.636719 220.175781 229.695312 220.144531 C 229.957031 219.972656 230.21875 219.855469 230.480469 219.738281 C 231.003906 219.503906 231.5 219.332031 231.992188 219.214844 C 232.226562 219.15625 232.488281 219.097656 232.722656 219.039062 L 233.070312 218.953125 L 233.273438 218.894531 L 233.476562 218.863281 C 234.613281 218.660156 235.691406 218.75 236.679688 218.894531 C 237.667969 219.039062 238.628906 219.300781 239.5625 219.476562 C 240.027344 219.5625 240.492188 219.652344 240.960938 219.679688 C 241.191406 219.710938 241.425781 219.710938 241.65625 219.738281 L 242.386719 219.738281 C 243.347656 219.738281 244.277344 219.738281 245.238281 219.652344 C 246.199219 219.59375 247.128906 219.476562 248.0625 219.332031 C 248.527344 219.242188 248.992188 219.15625 249.429688 219.070312 L 250.128906 218.921875 C 250.363281 218.863281 250.59375 218.835938 250.796875 218.777344 C 251.234375 218.660156 251.671875 218.546875 252.050781 218.398438 C 252.253906 218.3125 252.429688 218.253906 252.601562 218.136719 C 252.691406 218.078125 252.777344 218.050781 252.835938 217.992188 C 252.894531 217.960938 252.953125 217.90625 252.980469 217.875 L 253.039062 217.816406 L 253.039062 217.757812 L 253.011719 217.699219 L 253.011719 217.671875 C 253.011719 217.671875 252.980469 217.613281 253.011719 217.699219 L 252.980469 217.671875 L 252.980469 217.644531 L 252.980469 217.671875 L 252.953125 217.613281 C 252.921875 217.585938 252.863281 217.527344 252.777344 217.46875 L 252.488281 217.265625 C 252.429688 217.234375 252.371094 217.175781 252.3125 217.117188 L 252.167969 217.003906 C 251.585938 216.507812 250.796875 216.1875 249.953125 215.984375 C 249.546875 215.867188 249.082031 215.808594 248.644531 215.75 L 247.917969 215.664062 L 247.1875 215.546875 C 246.226562 215.402344 245.296875 215.226562 244.363281 215.109375 C 243.929688 215.050781 243.492188 215.023438 242.96875 214.964844 C 242.707031 214.933594 242.445312 214.90625 242.152344 214.820312 L 242.007812 214.789062 C 241.949219 214.789062 241.917969 214.761719 241.863281 214.761719 C 241.746094 214.730469 241.65625 214.730469 241.542969 214.703125 C 241.105469 214.644531 240.667969 214.644531 240.171875 214.613281 C 240.058594 214.613281 239.941406 214.613281 239.792969 214.585938 C 239.679688 214.585938 239.53125 214.558594 239.417969 214.558594 C 239.15625 214.527344 238.921875 214.5 238.6875 214.46875 C 238.457031 214.441406 238.195312 214.382812 237.960938 214.351562 C 237.757812 214.324219 237.523438 214.296875 237.292969 214.265625 C 237.058594 214.238281 236.855469 214.238281 236.621094 214.238281 C 236.503906 214.238281 236.417969 214.238281 236.332031 214.265625 L 236.242188 214.296875 C 236.214844 214.296875 236.242188 214.296875 236.300781 214.207031 L 235.542969 213.710938 C 235.691406 213.507812 235.808594 213.480469 235.894531 213.421875 C 235.980469 213.363281 236.070312 213.363281 236.15625 213.335938 C 236.300781 213.304688 236.445312 213.277344 236.5625 213.246094 C 236.824219 213.21875 237.085938 213.1875 237.320312 213.1875 C 237.582031 213.1875 237.816406 213.1875 238.078125 213.21875 L 238.777344 213.277344 C 239.007812 213.304688 239.242188 213.304688 239.472656 213.304688 C 239.589844 213.304688 239.707031 213.304688 239.824219 213.304688 C 239.941406 213.304688 240.058594 213.304688 240.171875 213.304688 C 240.640625 213.277344 241.132812 213.277344 241.65625 213.304688 C 241.773438 213.304688 241.917969 213.335938 242.066406 213.335938 C 242.125 213.335938 242.210938 213.363281 242.269531 213.363281 L 242.472656 213.394531 C 242.675781 213.421875 242.851562 213.449219 243.085938 213.449219 C 243.519531 213.480469 244.015625 213.449219 244.539062 213.507812 C 245.5 213.597656 246.460938 213.710938 247.421875 213.859375 L 248.820312 214.03125 C 249.3125 214.089844 249.835938 214.148438 250.332031 214.265625 C 251.351562 214.5 252.398438 214.90625 253.300781 215.632812 L 253.417969 215.75 L 253.535156 215.835938 L 253.824219 216.070312 C 253.941406 216.15625 254.058594 216.246094 254.203125 216.390625 C 254.261719 216.449219 254.347656 216.535156 254.40625 216.625 L 254.496094 216.769531 C 254.523438 216.828125 254.554688 216.886719 254.613281 216.945312 L 254.640625 217.003906 L 254.667969 217.03125 C 254.699219 217.117188 254.699219 217.089844 254.699219 217.117188 L 254.726562 217.175781 C 254.757812 217.265625 254.785156 217.351562 254.816406 217.46875 C 254.84375 217.671875 254.875 217.90625 254.84375 218.136719 C 254.816406 218.371094 254.726562 218.601562 254.613281 218.808594 C 254.496094 219.011719 254.347656 219.15625 254.203125 219.300781 C 254.058594 219.417969 253.914062 219.535156 253.765625 219.621094 C 253.621094 219.710938 253.503906 219.769531 253.359375 219.824219 C 253.097656 219.941406 252.835938 220.03125 252.574219 220.117188 C 252.050781 220.261719 251.554688 220.378906 251.058594 220.40625 C 250.796875 220.4375 250.566406 220.464844 250.332031 220.496094 L 249.605469 220.554688 C 249.109375 220.582031 248.613281 220.613281 248.148438 220.640625 C 247.1875 220.671875 246.199219 220.671875 245.238281 220.671875 C 244.277344 220.671875 243.316406 220.671875 242.355469 220.699219 L 241.628906 220.726562 C 241.367188 220.726562 241.132812 220.726562 240.871094 220.726562 C 240.378906 220.726562 239.882812 220.699219 239.417969 220.671875 C 238.457031 220.640625 237.496094 220.582031 236.59375 220.671875 C 235.691406 220.726562 234.847656 220.933594 234.117188 221.28125 L 233.972656 221.339844 L 233.855469 221.398438 L 233.535156 221.574219 L 232.925781 221.890625 C 232.515625 222.125 232.167969 222.328125 231.820312 222.5625 C 231.671875 222.679688 231.5 222.796875 231.382812 222.882812 L 231.292969 222.96875 C 231.265625 223 231.265625 223 231.207031 223.058594 L 231.003906 223.261719 C 230.742188 223.550781 230.480469 223.84375 230.277344 224.132812 C 230.1875 224.28125 230.074219 224.425781 230.015625 224.542969 C 229.984375 224.601562 229.957031 224.65625 229.925781 224.714844 L 229.898438 224.773438 L 229.898438 224.832031 C 229.898438 224.832031 229.867188 224.890625 229.898438 224.832031 C 229.898438 224.832031 229.898438 224.863281 229.898438 224.976562 C 229.898438 225.09375 229.925781 225.269531 229.957031 225.53125 C 229.984375 225.765625 230.042969 226.054688 230.074219 226.40625 C 230.101562 226.753906 230.074219 227.191406 229.984375 227.628906 C 229.984375 227.683594 229.957031 227.742188 229.925781 227.832031 L 229.898438 227.917969 L 229.839844 227.976562 L 229.78125 228.121094 C 229.753906 228.210938 229.722656 228.265625 229.664062 228.355469 C 229.519531 228.644531 229.316406 228.878906 229.140625 229.054688 C 228.761719 229.402344 228.414062 229.605469 228.09375 229.753906 C 227.773438 229.898438 227.480469 229.984375 227.191406 230.042969 C 226.898438 230.101562 226.636719 230.160156 226.40625 230.21875 L 225.996094 230.304688 C 225.851562 230.335938 225.707031 230.335938 225.558594 230.363281 C 225.269531 230.390625 224.976562 230.390625 224.714844 230.390625 C 223.582031 230.390625 222.5625 230.1875 221.574219 229.925781 C 221.078125 229.78125 220.613281 229.636719 220.144531 229.488281 L 219.449219 229.257812 L 218.75 229.023438 C 217.816406 228.675781 216.914062 228.296875 216.042969 227.890625 C 214.265625 227.101562 212.546875 226.316406 210.714844 225.910156 C 210.25 225.824219 209.8125 225.734375 209.347656 225.675781 C 208.878906 225.617188 208.414062 225.589844 207.949219 225.558594 C 207.019531 225.503906 206.058594 225.53125 205.125 225.589844 C 203.234375 225.734375 201.371094 226.054688 199.535156 226.550781 C 197.703125 227.015625 195.898438 227.597656 194.0625 228.210938 L 192.695312 228.644531 C 192.257812 228.792969 191.824219 228.9375 191.386719 229.113281 C 190.511719 229.460938 189.667969 229.808594 188.796875 230.1875 L 186.203125 231.351562 C 185.769531 231.558594 185.332031 231.761719 184.867188 231.933594 C 184.75 231.992188 184.660156 232.023438 184.574219 232.050781 L 184.253906 232.199219 C 184.050781 232.285156 183.816406 232.402344 183.554688 232.515625 C 183.0625 232.722656 182.535156 232.925781 181.839844 233.011719 C 181.488281 233.042969 181.082031 233.042969 180.617188 232.925781 C 180.5 232.894531 180.382812 232.867188 180.265625 232.78125 L 180.179688 232.722656 L 180.121094 232.691406 L 179.976562 232.605469 C 179.886719 232.546875 179.773438 232.488281 179.65625 232.371094 C 179.539062 232.253906 179.394531 232.140625 179.246094 231.878906 C 179.1875 231.761719 179.101562 231.585938 179.074219 231.410156 C 179.042969 231.238281 179.015625 231.0625 179.042969 230.886719 C 179.074219 230.566406 179.1875 230.363281 179.277344 230.21875 C 179.453125 229.925781 179.539062 229.839844 179.625 229.722656 C 179.714844 229.636719 179.742188 229.578125 179.742188 229.578125 L 179.742188 229.546875 C 179.773438 229.488281 179.773438 229.433594 179.773438 229.375 L 179.773438 229.316406 L 179.773438 229.34375 L 179.742188 229.316406 L 179.742188 229.34375 C 179.714844 229.285156 179.480469 229.082031 179.160156 228.90625 C 178.839844 228.734375 178.433594 228.585938 177.996094 228.441406 L 175.257812 227.539062 L 174.5625 227.308594 L 173.890625 227.046875 C 173.484375 226.898438 173.046875 226.753906 172.609375 226.609375 C 171.738281 226.347656 170.863281 226.140625 169.960938 226.027344 C 169.058594 225.910156 168.15625 225.851562 167.253906 225.878906 C 166.816406 225.878906 166.292969 225.9375 165.828125 225.9375 L 164.402344 225.96875 C 164.167969 225.96875 163.9375 225.996094 163.703125 225.996094 C 163.46875 225.996094 163.238281 226.027344 163.003906 226.054688 L 161.578125 226.199219 L 160.152344 226.347656 L 159.425781 226.40625 C 159.191406 226.433594 158.957031 226.460938 158.726562 226.492188 C 156.863281 226.726562 154.96875 227.25 153.019531 227.25 C 152.03125 227.25 151.039062 227.046875 150.167969 226.667969 C 149.265625 226.289062 148.421875 225.824219 147.605469 225.328125 C 146.789062 224.832031 145.976562 224.335938 145.101562 223.902344 C 144.257812 223.464844 143.355469 223.144531 142.453125 222.851562 C 141.550781 222.5625 140.621094 222.359375 139.660156 222.210938 C 138.726562 222.066406 137.765625 222.007812 136.835938 222.097656 C 136.601562 222.125 136.371094 222.15625 136.164062 222.183594 L 135.46875 222.328125 C 135 222.417969 134.507812 222.503906 134.039062 222.5625 C 133.546875 222.621094 133.082031 222.707031 132.585938 222.738281 L 132.207031 222.765625 C 132.089844 222.765625 132.003906 222.796875 131.886719 222.796875 C 131.683594 222.824219 131.449219 222.851562 131.21875 222.910156 C 130.984375 222.941406 130.75 223 130.460938 223.027344 L 130.257812 223.058594 L 130.054688 223.058594 C 129.90625 223.058594 129.789062 223.058594 129.675781 223.058594 C 129.414062 223.058594 129.179688 223.058594 128.976562 223.058594 C 128.859375 223.058594 128.773438 223.058594 128.683594 223.085938 L 128.539062 223.113281 L 128.363281 223.144531 C 127.898438 223.230469 127.375 223.289062 126.851562 223.320312 C 126.589844 223.320312 126.296875 223.320312 126.007812 223.289062 C 125.714844 223.261719 125.394531 223.171875 125.015625 223 C 124.929688 222.941406 124.84375 222.910156 124.726562 222.824219 C 124.667969 222.765625 124.636719 222.765625 124.609375 222.738281 L 124.523438 222.679688 L 124.464844 222.621094 C 124.320312 222.445312 124.171875 222.242188 124.085938 222.007812 C 124 221.777344 123.96875 221.515625 123.96875 221.308594 C 123.96875 221.078125 124.027344 220.875 124.054688 220.699219 C 124.171875 220.351562 124.320312 220.058594 124.464844 219.796875 C 124.636719 219.535156 124.8125 219.332031 124.988281 219.097656 C 125.074219 218.980469 125.164062 218.894531 125.277344 218.808594 L 125.539062 218.546875 C 125.6875 218.398438 125.804688 218.253906 125.917969 218.109375 C 126.152344 217.816406 126.328125 217.46875 126.445312 217.148438 C 126.5 216.972656 126.53125 216.828125 126.53125 216.683594 L 126.53125 216.449219 L 126.5 216.332031 L 126.472656 216.214844 C 126.445312 216.070312 126.386719 215.953125 126.328125 215.867188 C 126.269531 215.78125 126.210938 215.722656 126.09375 215.664062 C 125.859375 215.519531 125.394531 215.371094 124.929688 215.226562 C 124.492188 215.082031 124.027344 214.90625 123.5625 214.730469 C 123.097656 214.558594 122.628906 214.351562 122.164062 214.089844 C 121.699219 213.828125 121.234375 213.539062 120.796875 213.042969 C 120.59375 212.808594 120.386719 212.519531 120.273438 212.171875 C 120.125 211.820312 120.097656 211.414062 120.15625 211.0625 C 120.214844 210.683594 120.332031 210.394531 120.503906 210.101562 L 120.5625 210.015625 L 120.652344 209.898438 C 120.707031 209.839844 120.765625 209.753906 120.796875 209.695312 C 120.914062 209.578125 121 209.464844 121.117188 209.347656 C 121.582031 208.96875 122.046875 208.707031 122.542969 208.503906 C 122.777344 208.414062 123.007812 208.296875 123.242188 208.242188 L 123.417969 208.183594 L 123.53125 208.125 C 123.621094 208.09375 123.707031 208.035156 123.824219 207.976562 C 124.027344 207.890625 124.230469 207.746094 124.492188 207.628906 C 124.550781 207.601562 124.609375 207.570312 124.695312 207.542969 L 124.785156 207.511719 C 124.84375 207.484375 124.871094 207.484375 124.929688 207.453125 C 125.105469 207.394531 125.277344 207.394531 125.425781 207.394531 C 125.714844 207.394531 125.949219 207.425781 126.152344 207.425781 C 126.238281 207.425781 126.355469 207.425781 126.414062 207.425781 L 126.53125 207.394531 C 126.558594 207.367188 127.519531 207.367188 127.578125 207.308594 Z M 127.316406 208.125 " fill-opacity="1" fill-rule="nonzero"/><path fill="#ffffff" d="M 231.644531 210.046875 C 232.429688 211.003906 233.304688 211.324219 232.429688 212.519531 C 232.195312 212.808594 231.730469 213.042969 231.644531 213.421875 C 231.5 214.089844 232.429688 214.441406 231.410156 214.878906 C 230.917969 215.109375 224.453125 213.917969 226.085938 215.75 C 225.125 216.535156 224.425781 216.070312 223.40625 216.101562 C 222.183594 216.128906 221.835938 216.507812 221.746094 214.878906 C 220.320312 214.585938 219.300781 215.664062 217.933594 215.3125 C 216.566406 214.964844 215.253906 215.199219 213.828125 215.3125 C 213.1875 215.371094 212.460938 215.167969 211.9375 215.605469 C 211.792969 215.722656 211.820312 216.15625 211.644531 216.273438 C 211.210938 216.625 211.035156 216.625 210.421875 216.769531 C 209.113281 217.03125 207.65625 217.292969 206.347656 217.496094 C 204.28125 217.789062 202.769531 216.246094 200.789062 216.769531 C 199.828125 217.003906 198.546875 216.914062 197.410156 216.769531 C 196.21875 216.625 195.140625 216.101562 193.800781 216.273438 C 192.578125 216.421875 191.269531 216.710938 190.132812 216.945312 C 189.492188 217.089844 189.085938 217.175781 188.503906 217.46875 C 188.15625 217.671875 187.367188 218.3125 186.992188 218.371094 C 186 218.574219 185.097656 217.671875 184.167969 217.4375 C 183.234375 217.234375 177.269531 218.398438 177.441406 216.769531 C 179.101562 216.566406 180.089844 214.730469 177.910156 214.558594 C 177.007812 214.5 175.898438 214.441406 174.996094 214.558594 C 174.355469 214.644531 173.660156 214.847656 173.046875 214.992188 C 172.289062 215.167969 171.855469 215.519531 171.066406 215.953125 C 169.84375 216.652344 168.390625 216.796875 167.050781 217.175781 C 166.0625 217.46875 165.332031 218.398438 164.402344 218.398438 C 163.820312 218.398438 163.355469 218.109375 162.714844 218.167969 C 162.21875 218.226562 161.957031 218.371094 161.519531 218.398438 C 160.617188 218.515625 159.628906 218.457031 158.8125 218.574219 C 156.570312 218.894531 155.582031 218.226562 154.097656 216.710938 C 152.960938 215.546875 150.867188 214.761719 149.234375 214.761719 C 147.867188 214.761719 146.734375 214.5 145.421875 214.324219 C 143.035156 214.003906 140.792969 214.03125 138.347656 214.296875 C 137.503906 214.382812 135.058594 214.644531 134.332031 214.238281 C 132.933594 213.421875 134.128906 211.558594 132.613281 210.917969 C 131.332031 210.394531 129.527344 210.65625 128.976562 208.996094 C 128.886719 208.707031 129.0625 208.328125 129.003906 208.035156 C 128.917969 207.6875 128.65625 207.542969 128.566406 207.28125 C 128.335938 206.40625 128.421875 206.464844 128.714844 205.648438 C 127.402344 204.195312 124.027344 208.210938 123.734375 209.316406 C 123.386719 210.628906 123.851562 211.238281 124.695312 212.082031 C 125.394531 212.78125 127.199219 212.984375 127.082031 214.03125 C 128.074219 214.5 129.265625 214.441406 130.375 214.585938 C 130.460938 216.476562 131.246094 217.933594 133.3125 217.933594 C 134.273438 217.933594 134.566406 217.671875 135.410156 217.992188 C 135.640625 218.078125 135.933594 218.398438 136.195312 218.429688 C 136.980469 218.488281 137.039062 217.757812 137.648438 217.496094 C 138.554688 217.117188 139.28125 217.875 140.039062 217.960938 C 140.941406 218.050781 141.550781 217.730469 142.453125 217.960938 C 143.441406 218.226562 143.851562 218.398438 144.695312 218.019531 C 145.886719 217.496094 146.207031 217.175781 147.109375 218.195312 C 147.839844 219.011719 148.1875 219.652344 149.207031 220.117188 C 150.3125 220.613281 151.300781 220.613281 152.523438 220.613281 C 154.359375 220.613281 156.105469 220.84375 157.882812 220.84375 C 159.714844 220.84375 161.316406 220.84375 163.003906 220.175781 C 164.460938 219.621094 166.847656 219.621094 168.1875 220.320312 C 168.941406 219.359375 169.730469 219.300781 170.894531 219.390625 C 172.058594 219.476562 173.019531 220.320312 174.09375 220.378906 C 174.765625 220.40625 175.40625 220.03125 176.160156 220.117188 C 176.65625 220.175781 177.035156 220.464844 177.472656 220.554688 C 178.460938 220.785156 179.539062 220.523438 180.558594 220.785156 C 181.578125 221.046875 182.421875 220.988281 183.4375 221.078125 C 184.488281 221.164062 184.691406 221.71875 185.59375 222.066406 C 186.84375 222.53125 187.777344 222.125 188.941406 221.628906 C 189.726562 221.28125 190.980469 221.078125 191.882812 221.078125 C 192.726562 221.105469 193.570312 221.574219 194.53125 221.574219 C 195.578125 221.574219 196.421875 221.195312 197.410156 221.078125 C 198.402344 220.988281 199.160156 221.398438 200.0625 221.253906 C 201.167969 221.078125 201.71875 220.234375 202.941406 220.351562 C 203.84375 220.4375 204.367188 220.84375 205.15625 221.019531 C 206.027344 221.222656 207.570312 221.222656 208.472656 221.019531 C 210.480469 220.582031 212.054688 219.332031 214.003906 219.15625 C 214.789062 219.097656 215.253906 219.449219 215.925781 219.652344 C 216.710938 219.882812 217.324219 219.738281 218.109375 219.621094 C 218.777344 219.535156 219.417969 219.449219 220.03125 219.390625 C 221.28125 219.242188 220.988281 219.214844 221.890625 218.429688 C 222.5625 217.847656 223.027344 218.078125 223.871094 217.960938 C 224.511719 217.875 225.355469 217.992188 225.851562 217.933594 C 226.460938 217.847656 226.839844 217.265625 227.480469 217.234375 C 227.949219 217.234375 228.238281 217.527344 228.703125 217.4375 C 228.996094 217.410156 229.316406 217.058594 229.605469 216.945312 C 230.304688 216.683594 231.121094 216.972656 231.847656 216.769531 C 232.226562 216.683594 232.371094 216.363281 232.75 216.214844 C 233.101562 216.070312 233.390625 216.101562 233.769531 215.984375 C 235.167969 215.519531 237.175781 215.050781 237.816406 213.394531 C 238.046875 212.808594 237.667969 211.703125 237.144531 211.441406 C 236.476562 211.152344 235.515625 211.734375 234.992188 211.703125 C 234.089844 211.675781 234.089844 211.238281 233.535156 210.714844 C 232.894531 210.132812 232.546875 210.308594 231.644531 210.191406 C 231.585938 210.046875 231.558594 209.898438 231.613281 209.753906 L 231.613281 210.046875 Z M 231.644531 210.046875 " fill-opacity="1" fill-rule="nonzero"/><g clip-path="url(#265ed55446)"><path fill="#ffffff" d="M 356.25 0 L 374.996094 0 L 374.996094 15.839844 L 356.25 15.839844 Z M 356.25 0 " fill-opacity="1" fill-rule="nonzero"/></g></svg>